# Tiled2Unity generated file. Do not modify by hand.
# Wavefront file for 'Level3Excitaball_mesh_0003.obj'

# Vertices (Count = 36)
v -94 -67 0
v -95 -67 0
v -95 -66 0
v -94 -66 0
v -98 -67 0
v -99 -67 0
v -99 -66 0
v -98 -66 0
v -107 -71 0
v -108 -71 0
v -108 -70 0
v -107 -70 0
v -108 -71 0
v -109 -71 0
v -109 -70 0
v -108 -70 0
v -94 -72 0
v -95 -72 0
v -95 -71 0
v -94 -71 0
v -101 -72 0
v -102 -72 0
v -102 -71 0
v -101 -71 0
v -107 -76 0
v -108 -76 0
v -108 -75 0
v -107 -75 0
v -108 -76 0
v -109 -76 0
v -109 -75 0
v -108 -75 0
v -112 -76 0
v -113 -76 0
v -113 -75 0
v -112 -75 0

# Texture cooridinates (Count = 20)
vt 0.9411765 0.125
vt 1 0.125
vt 1 0.25
vt 0.9411765 0.25
vt 1 0.375
vt 0.9411765 0.375
vt 0.05882353 0.75
vt 0.1176471 0.75
vt 0.1176471 0.875
vt 0.05882353 0.875
vt 0.2941177 0.625
vt 0.2352941 0.625
vt 0.2352941 0.5
vt 0.2941177 0.5
vt 0.2941177 0
vt 0.2941177 0.125
vt 0.2352941 0.125
vt 0.2352941 0
vt 0.3529412 0
vt 0.3529412 0.125

# Normal
vn 0 0 -1

# Mesh description
g Level3Excitaball_mesh_0003

# Faces
f 1/1/1 2/2/1 3/3/1 4/4/1
f 5/4/1 6/3/1 7/5/1 8/6/1
f 9/4/1 10/3/1 11/5/1 12/6/1
f 13/1/1 14/2/1 15/3/1 16/4/1
f 17/7/1 18/8/1 19/9/1 20/10/1
f 21/11/1 22/12/1 23/13/1 24/14/1
f 25/15/1 26/16/1 27/17/1 28/18/1
f 29/19/1 30/20/1 31/16/1 32/15/1
f 33/7/1 34/8/1 35/9/1 36/10/1

