# Tiled2Unity generated file. Do not modify by hand.
# Wavefront file for 'Level3Excitaball_mesh_0005.obj'

# Vertices (Count = 216)
v -143 -63 0
v -144 -63 0
v -144 -62 0
v -143 -62 0
v -144 -63 0
v -145 -63 0
v -145 -62 0
v -144 -62 0
v -145 -63 0
v -146 -63 0
v -146 -62 0
v -145 -62 0
v -146 -63 0
v -147 -63 0
v -147 -62 0
v -146 -62 0
v -147 -63 0
v -148 -63 0
v -148 -62 0
v -147 -62 0
v -143 -64 0
v -144 -64 0
v -144 -63 0
v -143 -63 0
v -144 -64 0
v -145 -64 0
v -145 -63 0
v -144 -63 0
v -145 -64 0
v -146 -64 0
v -146 -63 0
v -145 -63 0
v -146 -64 0
v -147 -64 0
v -147 -63 0
v -146 -63 0
v -147 -64 0
v -148 -64 0
v -148 -63 0
v -147 -63 0
v -143 -65 0
v -144 -65 0
v -144 -64 0
v -143 -64 0
v -144 -65 0
v -145 -65 0
v -145 -64 0
v -144 -64 0
v -145 -65 0
v -146 -65 0
v -146 -64 0
v -145 -64 0
v -146 -65 0
v -147 -65 0
v -147 -64 0
v -146 -64 0
v -147 -65 0
v -148 -65 0
v -148 -64 0
v -147 -64 0
v -143 -66 0
v -144 -66 0
v -144 -65 0
v -143 -65 0
v -144 -66 0
v -145 -66 0
v -145 -65 0
v -144 -65 0
v -145 -66 0
v -146 -66 0
v -146 -65 0
v -145 -65 0
v -146 -66 0
v -147 -66 0
v -147 -65 0
v -146 -65 0
v -147 -66 0
v -148 -66 0
v -148 -65 0
v -147 -65 0
v -143 -67 0
v -144 -67 0
v -144 -66 0
v -143 -66 0
v -144 -67 0
v -145 -67 0
v -145 -66 0
v -144 -66 0
v -145 -67 0
v -146 -67 0
v -146 -66 0
v -145 -66 0
v -146 -67 0
v -147 -67 0
v -147 -66 0
v -146 -66 0
v -147 -67 0
v -148 -67 0
v -148 -66 0
v -147 -66 0
v -143 -68 0
v -144 -68 0
v -144 -67 0
v -143 -67 0
v -144 -68 0
v -145 -68 0
v -145 -67 0
v -144 -67 0
v -145 -68 0
v -146 -68 0
v -146 -67 0
v -145 -67 0
v -146 -68 0
v -147 -68 0
v -147 -67 0
v -146 -67 0
v -147 -68 0
v -148 -68 0
v -148 -67 0
v -147 -67 0
v -143 -69 0
v -144 -69 0
v -144 -68 0
v -143 -68 0
v -144 -69 0
v -145 -69 0
v -145 -68 0
v -144 -68 0
v -145 -69 0
v -146 -69 0
v -146 -68 0
v -145 -68 0
v -146 -69 0
v -147 -69 0
v -147 -68 0
v -146 -68 0
v -147 -69 0
v -148 -69 0
v -148 -68 0
v -147 -68 0
v -133 -70 0
v -134 -70 0
v -134 -69 0
v -133 -69 0
v -134 -70 0
v -135 -70 0
v -135 -69 0
v -134 -69 0
v -135 -70 0
v -136 -70 0
v -136 -69 0
v -135 -69 0
v -136 -70 0
v -137 -70 0
v -137 -69 0
v -136 -69 0
v -143 -70 0
v -144 -70 0
v -144 -69 0
v -143 -69 0
v -144 -70 0
v -145 -70 0
v -145 -69 0
v -144 -69 0
v -145 -70 0
v -146 -70 0
v -146 -69 0
v -145 -69 0
v -146 -70 0
v -147 -70 0
v -147 -69 0
v -146 -69 0
v -147 -70 0
v -148 -70 0
v -148 -69 0
v -147 -69 0
v -143 -75 0
v -144 -75 0
v -144 -74 0
v -143 -74 0
v -145 -75 0
v -146 -75 0
v -146 -74 0
v -145 -74 0
v -146 -75 0
v -147 -75 0
v -147 -74 0
v -146 -74 0
v -146 -76 0
v -147 -76 0
v -147 -75 0
v -146 -75 0
v -140 -77 0
v -141 -77 0
v -141 -76 0
v -140 -76 0
v -146 -77 0
v -147 -77 0
v -147 -76 0
v -146 -76 0
v -132 -83 0
v -133 -83 0
v -133 -82 0
v -132 -82 0
v -133 -83 0
v -134 -83 0
v -134 -82 0
v -133 -82 0
v -140 -83 0
v -141 -83 0
v -141 -82 0
v -140 -82 0
v -146 -83 0
v -147 -83 0
v -147 -82 0
v -146 -82 0

# Texture cooridinates (Count = 71)
vt 0.1176471 0.875
vt 0.1764706 0.875
vt 0.1764706 1
vt 0.1176471 1
vt 0.2352941 0.875
vt 0.2352941 1
vt 0.2941177 0.875
vt 0.2941177 1
vt 0.3529412 0.875
vt 0.3529412 1
vt 0.4117647 0.875
vt 0.4117647 1
vt 0.1176471 0.75
vt 0.1764706 0.75
vt 0.2352941 0.75
vt 0.2941177 0.75
vt 0.3529412 0.75
vt 0.4117647 0.75
vt 0.1176471 0.625
vt 0.1764706 0.625
vt 0.2352941 0.625
vt 0.2941177 0.625
vt 0.3529412 0.625
vt 0.4117647 0.625
vt 0.1176471 0.5
vt 0.1764706 0.5
vt 0.2352941 0.5
vt 0.2941177 0.5
vt 0.3529412 0.5
vt 0.4117647 0.5
vt 0.1176471 0.375
vt 0.1764706 0.375
vt 0.2352941 0.375
vt 0.2941177 0.375
vt 0.3529412 0.375
vt 0.4117647 0.375
vt 0.1176471 0.25
vt 0.1764706 0.25
vt 0.2352941 0.25
vt 0.2941177 0.25
vt 0.3529412 0.25
vt 0.4117647 0.25
vt 0.1176471 0.125
vt 0.1764706 0.125
vt 0.2352941 0.125
vt 0.2941177 0.125
vt 0.3529412 0.125
vt 0.4117647 0.125
vt 0.9411765 0.25
vt 1 0.25
vt 1 0.375
vt 0.9411765 0.375
vt 0.8823529 0.125
vt 0.9411765 0.125
vt 0.8823529 0.25
vt 0.8235294 0.25
vt 0.8823529 0.375
vt 0.8235294 0.375
vt 0.8235294 0.125
vt 0.1176471 0
vt 0.1764706 0
vt 0.2352941 0
vt 0.2941177 0
vt 0.3529412 0
vt 0.4117647 0
vt 0 0.875
vt 0.05882353 0.875
vt 0.05882353 1
vt 0 1
vt 0.05882353 0.75
vt 1 0.125

# Normal
vn 0 0 -1

# Mesh description
g Level3Excitaball_mesh_0005

# Faces
f 1/1/1 2/2/1 3/3/1 4/4/1
f 5/2/1 6/5/1 7/6/1 8/3/1
f 9/5/1 10/7/1 11/8/1 12/6/1
f 13/7/1 14/9/1 15/10/1 16/8/1
f 17/9/1 18/11/1 19/12/1 20/10/1
f 21/13/1 22/14/1 23/2/1 24/1/1
f 25/14/1 26/15/1 27/5/1 28/2/1
f 29/15/1 30/16/1 31/7/1 32/5/1
f 33/16/1 34/17/1 35/9/1 36/7/1
f 37/17/1 38/18/1 39/11/1 40/9/1
f 41/19/1 42/20/1 43/14/1 44/13/1
f 45/20/1 46/21/1 47/15/1 48/14/1
f 49/21/1 50/22/1 51/16/1 52/15/1
f 53/22/1 54/23/1 55/17/1 56/16/1
f 57/23/1 58/24/1 59/18/1 60/17/1
f 61/25/1 62/26/1 63/20/1 64/19/1
f 65/26/1 66/27/1 67/21/1 68/20/1
f 69/27/1 70/28/1 71/22/1 72/21/1
f 73/28/1 74/29/1 75/23/1 76/22/1
f 77/29/1 78/30/1 79/24/1 80/23/1
f 81/31/1 82/32/1 83/26/1 84/25/1
f 85/32/1 86/33/1 87/27/1 88/26/1
f 89/33/1 90/34/1 91/28/1 92/27/1
f 93/34/1 94/35/1 95/29/1 96/28/1
f 97/35/1 98/36/1 99/30/1 100/29/1
f 101/37/1 102/38/1 103/32/1 104/31/1
f 105/38/1 106/39/1 107/33/1 108/32/1
f 109/39/1 110/40/1 111/34/1 112/33/1
f 113/40/1 114/41/1 115/35/1 116/34/1
f 117/41/1 118/42/1 119/36/1 120/35/1
f 121/43/1 122/44/1 123/38/1 124/37/1
f 125/44/1 126/45/1 127/39/1 128/38/1
f 129/45/1 130/46/1 131/40/1 132/39/1
f 133/46/1 134/47/1 135/41/1 136/40/1
f 137/47/1 138/48/1 139/42/1 140/41/1
f 141/49/1 142/50/1 143/51/1 144/52/1
f 145/53/1 146/54/1 147/49/1 148/55/1
f 149/56/1 150/55/1 151/57/1 152/58/1
f 153/59/1 154/53/1 155/55/1 156/56/1
f 157/60/1 158/61/1 159/44/1 160/43/1
f 161/61/1 162/62/1 163/45/1 164/44/1
f 165/62/1 166/63/1 167/46/1 168/45/1
f 169/63/1 170/64/1 171/47/1 172/46/1
f 173/64/1 174/65/1 175/48/1 176/47/1
f 177/11/1 178/12/1 179/10/1 180/9/1
f 181/66/1 182/67/1 183/68/1 184/69/1
f 185/67/1 186/1/1 187/4/1 188/68/1
f 189/70/1 190/13/1 191/1/1 192/67/1
f 193/56/1 194/55/1 195/57/1 196/58/1
f 197/54/1 198/71/1 199/50/1 200/49/1
f 201/23/1 202/22/1 203/28/1 204/29/1
f 205/22/1 206/21/1 207/27/1 208/28/1
f 209/8/1 210/7/1 211/9/1 212/10/1
f 213/11/1 214/12/1 215/10/1 216/9/1

