# Tiled2Unity generated file. Do not modify by hand.
# Wavefront file for 'Level2Excitaball_mesh_0003.obj'

# Vertices (Count = 216)
v -105 -74 0
v -106 -74 0
v -106 -73 0
v -105 -73 0
v -119 -74 0
v -120 -74 0
v -120 -73 0
v -119 -73 0
v -104 -75 0
v -105 -75 0
v -105 -74 0
v -104 -74 0
v -105 -75 0
v -106 -75 0
v -106 -74 0
v -105 -74 0
v -106 -75 0
v -107 -75 0
v -107 -74 0
v -106 -74 0
v -107 -75 0
v -108 -75 0
v -108 -74 0
v -107 -74 0
v -108 -75 0
v -109 -75 0
v -109 -74 0
v -108 -74 0
v -109 -75 0
v -110 -75 0
v -110 -74 0
v -109 -74 0
v -110 -75 0
v -111 -75 0
v -111 -74 0
v -110 -74 0
v -115 -75 0
v -116 -75 0
v -116 -74 0
v -115 -74 0
v -116 -75 0
v -117 -75 0
v -117 -74 0
v -116 -74 0
v -117 -75 0
v -118 -75 0
v -118 -74 0
v -117 -74 0
v -118 -75 0
v -119 -75 0
v -119 -74 0
v -118 -74 0
v -119 -75 0
v -120 -75 0
v -120 -74 0
v -119 -74 0
v -120 -75 0
v -121 -75 0
v -121 -74 0
v -120 -74 0
v -104 -76 0
v -105 -76 0
v -105 -75 0
v -104 -75 0
v -105 -76 0
v -106 -76 0
v -106 -75 0
v -105 -75 0
v -106 -76 0
v -107 -76 0
v -107 -75 0
v -106 -75 0
v -107 -76 0
v -108 -76 0
v -108 -75 0
v -107 -75 0
v -108 -76 0
v -109 -76 0
v -109 -75 0
v -108 -75 0
v -109 -76 0
v -110 -76 0
v -110 -75 0
v -109 -75 0
v -110 -76 0
v -111 -76 0
v -111 -75 0
v -110 -75 0
v -111 -76 0
v -112 -76 0
v -112 -75 0
v -111 -75 0
v -112 -76 0
v -113 -76 0
v -113 -75 0
v -112 -75 0
v -114 -76 0
v -115 -76 0
v -115 -75 0
v -114 -75 0
v -115 -76 0
v -116 -76 0
v -116 -75 0
v -115 -75 0
v -116 -76 0
v -117 -76 0
v -117 -75 0
v -116 -75 0
v -117 -76 0
v -118 -76 0
v -118 -75 0
v -117 -75 0
v -118 -76 0
v -119 -76 0
v -119 -75 0
v -118 -75 0
v -119 -76 0
v -120 -76 0
v -120 -75 0
v -119 -75 0
v -120 -76 0
v -121 -76 0
v -121 -75 0
v -120 -75 0
v -104 -77 0
v -105 -77 0
v -105 -76 0
v -104 -76 0
v -105 -77 0
v -106 -77 0
v -106 -76 0
v -105 -76 0
v -106 -77 0
v -107 -77 0
v -107 -76 0
v -106 -76 0
v -107 -77 0
v -108 -77 0
v -108 -76 0
v -107 -76 0
v -108 -77 0
v -109 -77 0
v -109 -76 0
v -108 -76 0
v -109 -77 0
v -110 -77 0
v -110 -76 0
v -109 -76 0
v -110 -77 0
v -111 -77 0
v -111 -76 0
v -110 -76 0
v -111 -77 0
v -112 -77 0
v -112 -76 0
v -111 -76 0
v -114 -77 0
v -115 -77 0
v -115 -76 0
v -114 -76 0
v -115 -77 0
v -116 -77 0
v -116 -76 0
v -115 -76 0
v -116 -77 0
v -117 -77 0
v -117 -76 0
v -116 -76 0
v -117 -77 0
v -118 -77 0
v -118 -76 0
v -117 -76 0
v -118 -77 0
v -119 -77 0
v -119 -76 0
v -118 -76 0
v -119 -77 0
v -120 -77 0
v -120 -76 0
v -119 -76 0
v -120 -77 0
v -121 -77 0
v -121 -76 0
v -120 -76 0
v -106 -78 0
v -107 -78 0
v -107 -77 0
v -106 -77 0
v -115 -78 0
v -116 -78 0
v -116 -77 0
v -115 -77 0
v -116 -78 0
v -117 -78 0
v -117 -77 0
v -116 -77 0
v -119 -78 0
v -120 -78 0
v -120 -77 0
v -119 -77 0
v -115 -79 0
v -116 -79 0
v -116 -78 0
v -115 -78 0
v -116 -79 0
v -117 -79 0
v -117 -78 0
v -116 -78 0
v -117 -79 0
v -118 -79 0
v -118 -78 0
v -117 -78 0
v -116 -80 0
v -117 -80 0
v -117 -79 0
v -116 -79 0

# Texture cooridinates (Count = 42)
vt 0.9411765 0.125
vt 1 0.125
vt 1 0.25
vt 0.9411765 0.25
vt 1 0.375
vt 0.9411765 0.375
vt 0.5882353 0.625
vt 0.6470588 0.625
vt 0.6470588 0.75
vt 0.5882353 0.75
vt 0.7058824 0.625
vt 0.7058824 0.75
vt 0.7647059 0.625
vt 0.7647059 0.75
vt 0.5882353 0.5
vt 0.6470588 0.5
vt 0.7058824 0.875
vt 0.6470588 0.875
vt 0.7058824 0.5
vt 0.7647059 0.5
vt 0.2352941 0.5
vt 0.2941177 0.5
vt 0.2941177 0.625
vt 0.2352941 0.625
vt 0.3529412 0.5
vt 0.3529412 0.625
vt 0.1176471 0.75
vt 0.1764706 0.75
vt 0.1764706 0.875
vt 0.1176471 0.875
vt 0.2352941 0.375
vt 0.2941177 0.375
vt 0.4117647 1
vt 0.3529412 1
vt 0.3529412 0.875
vt 0.4117647 0.875
vt 0.1176471 0.625
vt 0.1764706 0.625
vt 0.1764706 0.5
vt 0.2352941 0.75
vt 0.2941177 0.25
vt 0.2352941 0.25

# Normal
vn 0 0 -1

# Mesh description
g Level2Excitaball_mesh_0003

# Faces
f 1/1/1 2/2/1 3/3/1 4/4/1
f 5/4/1 6/3/1 7/5/1 8/6/1
f 9/7/1 10/8/1 11/9/1 12/10/1
f 13/8/1 14/11/1 15/12/1 16/9/1
f 17/8/1 18/11/1 19/12/1 20/9/1
f 21/8/1 22/11/1 23/12/1 24/9/1
f 25/8/1 26/11/1 27/12/1 28/9/1
f 29/8/1 30/11/1 31/12/1 32/9/1
f 33/11/1 34/13/1 35/14/1 36/12/1
f 37/7/1 38/8/1 39/9/1 40/10/1
f 41/8/1 42/11/1 43/12/1 44/9/1
f 45/8/1 46/11/1 47/12/1 48/9/1
f 49/8/1 50/11/1 51/12/1 52/9/1
f 53/8/1 54/11/1 55/12/1 56/9/1
f 57/11/1 58/13/1 59/14/1 60/12/1
f 61/15/1 62/16/1 63/8/1 64/7/1
f 65/9/1 66/12/1 67/17/1 68/18/1
f 69/9/1 70/12/1 71/17/1 72/18/1
f 73/9/1 74/12/1 75/17/1 76/18/1
f 77/9/1 78/12/1 79/17/1 80/18/1
f 81/9/1 82/12/1 83/17/1 84/18/1
f 85/19/1 86/20/1 87/13/1 88/11/1
f 89/21/1 90/22/1 91/23/1 92/24/1
f 93/22/1 94/25/1 95/26/1 96/23/1
f 97/27/1 98/28/1 99/29/1 100/30/1
f 101/15/1 102/16/1 103/8/1 104/7/1
f 105/9/1 106/12/1 107/17/1 108/18/1
f 109/9/1 110/12/1 111/17/1 112/18/1
f 113/9/1 114/12/1 115/17/1 116/18/1
f 117/9/1 118/12/1 119/17/1 120/18/1
f 121/19/1 122/20/1 123/13/1 124/11/1
f 125/10/1 126/7/1 127/8/1 128/9/1
f 129/20/1 130/13/1 131/11/1 132/19/1
f 133/20/1 134/13/1 135/11/1 136/19/1
f 137/20/1 138/13/1 139/11/1 140/19/1
f 141/20/1 142/13/1 143/11/1 144/19/1
f 145/20/1 146/13/1 147/11/1 148/19/1
f 149/13/1 150/14/1 151/12/1 152/11/1
f 153/31/1 154/32/1 155/22/1 156/21/1
f 157/33/1 158/34/1 159/35/1 160/36/1
f 161/10/1 162/7/1 163/8/1 164/9/1
f 165/20/1 166/13/1 167/11/1 168/19/1
f 169/20/1 170/13/1 171/11/1 172/19/1
f 173/20/1 174/13/1 175/11/1 176/19/1
f 177/20/1 178/13/1 179/11/1 180/19/1
f 181/13/1 182/14/1 183/12/1 184/11/1
f 185/27/1 186/37/1 187/38/1 188/28/1
f 189/23/1 190/24/1 191/21/1 192/22/1
f 193/24/1 194/38/1 195/39/1 196/21/1
f 197/27/1 198/37/1 199/38/1 200/28/1
f 201/27/1 202/28/1 203/29/1 204/30/1
f 205/40/1 206/28/1 207/38/1 208/24/1
f 209/28/1 210/27/1 211/37/1 212/38/1
f 213/41/1 214/32/1 215/31/1 216/42/1

