# Tiled2Unity generated file. Do not modify by hand.
# Wavefront file for 'Level1Excitaball_mesh_0002.obj'

# Vertices (Count = 48)
v -31 -77 0
v -32 -77 0
v -32 -76 0
v -31 -76 0
v -32 -77 0
v -33 -77 0
v -33 -76 0
v -32 -76 0
v -33 -77 0
v -34 -77 0
v -34 -76 0
v -33 -76 0
v -34 -77 0
v -35 -77 0
v -35 -76 0
v -34 -76 0
v -35 -77 0
v -36 -77 0
v -36 -76 0
v -35 -76 0
v -36 -77 0
v -37 -77 0
v -37 -76 0
v -36 -76 0
v -45 -77 0
v -46 -77 0
v -46 -76 0
v -45 -76 0
v -46 -77 0
v -47 -77 0
v -47 -76 0
v -46 -76 0
v -47 -77 0
v -48 -77 0
v -48 -76 0
v -47 -76 0
v -48 -77 0
v -49 -77 0
v -49 -76 0
v -48 -76 0
v -49 -77 0
v -50 -77 0
v -50 -76 0
v -49 -76 0
v -50 -77 0
v -51 -77 0
v -51 -76 0
v -50 -76 0

# Texture cooridinates (Count = 8)
vt 0.5882353 0.625
vt 0.6470588 0.625
vt 0.6470588 0.75
vt 0.5882353 0.75
vt 0.7058824 0.625
vt 0.7058824 0.75
vt 0.7647059 0.625
vt 0.7647059 0.75

# Normal
vn 0 0 -1

# Mesh description
g Level1Excitaball_mesh_0002

# Faces
f 1/1/1 2/2/1 3/3/1 4/4/1
f 5/2/1 6/5/1 7/6/1 8/3/1
f 9/2/1 10/5/1 11/6/1 12/3/1
f 13/2/1 14/5/1 15/6/1 16/3/1
f 17/2/1 18/5/1 19/6/1 20/3/1
f 21/5/1 22/7/1 23/8/1 24/6/1
f 25/1/1 26/2/1 27/3/1 28/4/1
f 29/2/1 30/5/1 31/6/1 32/3/1
f 33/2/1 34/5/1 35/6/1 36/3/1
f 37/2/1 38/5/1 39/6/1 40/3/1
f 41/2/1 42/5/1 43/6/1 44/3/1
f 45/5/1 46/7/1 47/8/1 48/6/1

