# Tiled2Unity generated file. Do not modify by hand.
# Wavefront file for 'ForestTiles_mesh_0005.obj'

# Vertices (Count = 48)
v -23 -70 0
v -24 -70 0
v -24 -69 0
v -23 -69 0
v -24 -70 0
v -25 -70 0
v -25 -69 0
v -24 -69 0
v -25 -70 0
v -26 -70 0
v -26 -69 0
v -25 -69 0
v -26 -70 0
v -27 -70 0
v -27 -69 0
v -26 -69 0
v -27 -70 0
v -28 -70 0
v -28 -69 0
v -27 -69 0
v -28 -70 0
v -29 -70 0
v -29 -69 0
v -28 -69 0
v -23 -71 0
v -24 -71 0
v -24 -70 0
v -23 -70 0
v -24 -71 0
v -25 -71 0
v -25 -70 0
v -24 -70 0
v -25 -71 0
v -26 -71 0
v -26 -70 0
v -25 -70 0
v -26 -71 0
v -27 -71 0
v -27 -70 0
v -26 -70 0
v -27 -71 0
v -28 -71 0
v -28 -70 0
v -27 -70 0
v -28 -71 0
v -29 -71 0
v -29 -70 0
v -28 -70 0

# Texture cooridinates (Count = 16)
vt 0.6470588 0.375
vt 0.7058824 0.375
vt 0.7058824 0.5
vt 0.6470588 0.5
vt 0.7647059 0.375
vt 0.7647059 0.5
vt 0.8235294 0.375
vt 0.8235294 0.5
vt 0.6470588 0.125
vt 0.7058824 0.125
vt 0.7058824 0.25
vt 0.6470588 0.25
vt 0.7647059 0.125
vt 0.7647059 0.25
vt 0.8235294 0.125
vt 0.8235294 0.25

# Normal
vn 0 0 -1

# Mesh description
g ForestTiles_mesh_0005

# Faces
f 1/1/1 2/2/1 3/3/1 4/4/1
f 5/2/1 6/5/1 7/6/1 8/3/1
f 9/2/1 10/5/1 11/6/1 12/3/1
f 13/2/1 14/5/1 15/6/1 16/3/1
f 17/2/1 18/5/1 19/6/1 20/3/1
f 21/5/1 22/7/1 23/8/1 24/6/1
f 25/9/1 26/10/1 27/11/1 28/12/1
f 29/10/1 30/13/1 31/14/1 32/11/1
f 33/10/1 34/13/1 35/14/1 36/11/1
f 37/10/1 38/13/1 39/14/1 40/11/1
f 41/10/1 42/13/1 43/14/1 44/11/1
f 45/13/1 46/15/1 47/16/1 48/14/1

